<svg height="512pt" viewBox="0 -66 512.00018 512" width="512pt" xmlns="http://www.w3.org/2000/svg"><path d="m347.46875 0h-180.9375c-11.738281 0-21.285156 9.550781-21.285156 21.285156v66.257813c0 11.734375 9.550781 21.285156 21.285156 21.285156h7.597656l23.285156 66.378906v174.792969h-29.964843c-8.285157 0-15 6.714844-15 15s6.714843 15 15 15h179.101562c8.285157 0 15-6.714844 15-15s-6.714843-15-15-15h-29.960937v-174.792969l23.28125-66.378906h7.597656c11.738281 0 21.285156-9.550781 21.285156-21.285156v-66.257813c.003906-11.734375-9.546875-21.285156-21.285156-21.285156zm-172.222656 30h163.511718v48.828125c-129.144531 0 162.785157 0-163.511718 0zm52.164062 320v-162.347656h59.179688v162.347656zm63.542969-192.347656h-67.90625l-17.125-48.828125h102.160156zm0 0"/><path d="m111.546875 40.304688c-30.710937-20.554688-52.988281-30.980469-66.207031-30.980469-24.960938 0-45.2734378 20.230469-45.2734378 45.089843 0 24.859376 20.3124998 45.085938 45.2734378 45.085938 13.222656 0 35.496094-10.421875 66.203125-30.976562 4.722656-3.15625 7.539062-8.429688 7.542969-14.105469 0-5.679688-2.820313-10.953125-7.539063-14.113281zm-66.207031 29.195312c-8.421875 0-15.273438-6.765625-15.273438-15.085938 0-8.320312 6.851563-15.089843 15.261719-15.089843 4.105469.09375 16.085937 5.332031 32.457031 15.089843-16.367187 9.757813-28.347656 14.996094-32.445312 15.085938zm0 0"/><path d="m90.3125 120.714844h-.003906c-36.988282 1.515625-61.148438 6.234375-71.804688 14.019531-9.773437 7.140625-16.160156 17.644531-17.980468 29.578125-1.816407 11.914062 1.132812 23.816406 8.308593 33.519531 8.859375 11.976563 22.601563 18.320313 36.515625 18.320313 9.296875 0 18.671875-2.832032 26.714844-8.710938 10.675781-7.796875 22.425781-29.328125 34.929688-63.996094 1.925781-5.324218 1.074218-11.230468-2.273438-15.796874-3.351562-4.574219-8.75-7.164063-14.40625-6.933594zm-35.945312 62.503906c-10.933594 7.984375-26.207032-1.164062-24.1875-14.378906 1.941406-12.71875 15.199218-14.40625 41.296874-16.828125-7.359374 17.460937-13.875 28.71875-17.109374 31.207031zm0 0"/><path d="m511.933594 54.414062c0-24.859374-20.308594-45.089843-45.273438-45.089843-13.21875 0-35.492187 10.425781-66.203125 30.980469-4.722656 3.160156-7.539062 8.433593-7.539062 14.113281 0 5.675781 2.820312 10.953125 7.535156 14.105469 30.710937 20.558593 52.984375 30.980468 66.207031 30.980468 24.964844-.003906 45.273438-20.230468 45.273438-45.089844zm-45.273438-15.089843c8.421875 0 15.273438 6.769531 15.273438 15.089843 0 8.320313-6.851563 15.085938-15.261719 15.085938-4.105469-.089844-16.085937-5.328125-32.457031-15.085938 16.371094-9.757812 28.351562-14.996093 32.445312-15.089843zm0 0"/><path d="m511.476562 164.3125c-1.824218-11.933594-8.207031-22.4375-17.980468-29.578125-10.65625-7.785156-34.816406-12.5-71.804688-14.019531h-.003906c-5.664062-.230469-11.050781 2.359375-14.402344 6.933594-3.347656 4.566406-4.199218 10.46875-2.277344 15.796874 12.503907 34.667969 24.257813 56.203126 34.929688 64 8.046875 5.875 17.417969 8.707032 26.714844 8.707032 13.914062 0 27.65625-6.347656 36.515625-18.320313 7.175781-9.703125 10.128906-21.609375 8.308593-33.519531zm-53.832031 18.914062c-3.242187-2.492187-9.761719-13.753906-17.121093-31.214843 26.238281 2.433593 39.378906 4.273437 41.296874 16.828125 2.011719 13.167968-13.203124 22.40625-24.175781 14.386718zm0 0"/></svg>